<?xml version="1.0" encoding="UTF-8" standalone="no"?><!-- Generator: Gravit.io --><svg xmlns="http://www.w3.org/2000/svg" xmlns:xlink="http://www.w3.org/1999/xlink" style="isolation:isolate" viewBox="0 0 500 500" width="500pt" height="500pt"><g><linearGradient id="_lgradient_0" x1="1.0472896439861357" y1="1.0137773959052498" x2="-0.05033436968572502" y2="-0.27875381535957167" gradientTransform="matrix(451.77,0,0,380.985,24.115,111.015)" gradientUnits="userSpaceOnUse"><stop offset="1.25%" stop-opacity="1" style="stop-color:rgb(134,148,162)"/><stop offset="98.33333333333333%" stop-opacity="1" style="stop-color:rgb(49,48,48)"/><stop offset="99.58333333333333%" stop-opacity="1" style="stop-color:rgb(0,0,0)"/></linearGradient><path d=" M 453.772 112.698 L 247.62 199.017 L 45.143 112.812 C 32.954 107.68 24.115 114.233 24.115 127.381 L 24.115 378.087 C 24.115 391.21 32.954 406.127 45.143 411.259 L 226.015 488.158 C 238.179 493.266 257.643 493.266 269.82 488.248 L 453.894 411.152 C 466.084 406.131 475.885 391.214 475.885 378.091 L 475.885 127.385 C 475.885 114.238 465.961 107.684 453.767 112.702 L 453.772 112.698 Z " fill="url(#_lgradient_0)"/><linearGradient id="_lgradient_1" x1="-0.7787683618563787" y1="-0.03825332916241775" x2="1.803014423968257" y2="3.156910054306414" gradientTransform="matrix(191.001,0,0,155.195,153.56,8)" gradientUnits="userSpaceOnUse"><stop offset="0.8333333333333334%" stop-opacity="1" style="stop-color:rgb(48,48,48)"/><stop offset="81.73551400965252%" stop-opacity="1" style="stop-color:rgb(134,148,162)"/><stop offset="100%" stop-opacity="1" style="stop-color:rgb(0,0,0)"/></linearGradient><path d=" M 247.735 163.195 L 343.36 121.999 C 344.184 116.871 344.56 111.6 344.56 106.255 C 344.56 52.042 301.833 8 249.062 8 C 196.267 8 153.56 52.042 153.56 106.259 C 153.56 111.854 154.027 117.35 154.817 122.581 L 247.735 163.195 L 247.735 163.195 Z " fill="url(#_lgradient_1)"/></g></svg>